<?xml version="1.0" encoding="utf-8"?>
<!-- Generator: Adobe Illustrator 26.5.0, SVG Export Plug-In . SVG Version: 6.00 Build 0)  -->
<svg version="1.1" id="Layer_1" xmlns="http://www.w3.org/2000/svg" xmlns:xlink="http://www.w3.org/1999/xlink" x="0px" y="0px"
	 viewBox="0 0 24 24" style="enable-background:new 0 0 24 24;" xml:space="preserve">
<style type="text/css">
	.st0{fill:#6BC47D;}
</style>
<path class="st0" d="M19,4h-1V3c0-0.6-0.4-1-1-1s-1,0.4-1,1v1H8V3c0-0.6-0.4-1-1-1S6,2.4,6,3v1H5C3.3,4,2,5.3,2,7v1h20V7
	C22,5.3,20.7,4,19,4z M2,19c0,1.7,1.3,3,3,3h14c1.7,0,3-1.3,3-3v-9H2V19z M18,12.1c0.8,0,1.4,0.6,1.4,1.4s-0.6,1.4-1.4,1.4
	c-0.8,0-1.4-0.6-1.4-1.4S17.2,12.1,18,12.1z M18,16.9c0.8,0,1.4,0.6,1.4,1.4s-0.6,1.4-1.4,1.4c-0.8,0-1.4-0.6-1.4-1.4
	S17.2,16.9,18,16.9z M12,12.1c0.8,0,1.4,0.6,1.4,1.4s-0.6,1.4-1.4,1.4s-1.4-0.6-1.4-1.4S11.2,12.1,12,12.1z M12,16.9
	c0.8,0,1.4,0.6,1.4,1.4s-0.6,1.4-1.4,1.4s-1.4-0.6-1.4-1.4S11.2,16.9,12,16.9z M6,12.1c0.8,0,1.4,0.6,1.4,1.4S6.8,14.9,6,14.9
	s-1.4-0.6-1.4-1.4S5.2,12.1,6,12.1z M6,16.9c0.8,0,1.4,0.6,1.4,1.4S6.8,19.7,6,19.7s-1.4-0.6-1.4-1.4S5.2,16.9,6,16.9z"/>
</svg>
