<?xml version="1.0" encoding="utf-8"?>
<!-- Generator: Adobe Illustrator 26.5.0, SVG Export Plug-In . SVG Version: 6.00 Build 0)  -->
<svg version="1.1" id="Capa_1" xmlns="http://www.w3.org/2000/svg" xmlns:xlink="http://www.w3.org/1999/xlink" x="0px" y="0px"
	 viewBox="0 0 60.1 60.1" style="enable-background:new 0 0 60.1 60.1;" xml:space="preserve">
<style type="text/css">
	.st0{fill:#6BC47D;}
</style>
<g>
	<path class="st0" d="M56.2,51.9H3.9c-2.2,0-3.9-1.3-3.9-3s1.7-3,3.9-3h52.3c2.2,0,3.9,1.3,3.9,3S58.4,51.9,56.2,51.9z"/>
	<path class="st0" d="M56.2,33.1H3.9c-2.2,0-3.9-1.3-3.9-3s1.7-3,3.9-3h52.3c2.2,0,3.9,1.3,3.9,3C60.1,31.7,58.4,33.1,56.2,33.1z"/>
	<path class="st0" d="M56.2,14.2H3.9c-2.2,0-3.9-1.3-3.9-3s1.7-3,3.9-3h52.3c2.2,0,3.9,1.3,3.9,3S58.4,14.2,56.2,14.2z"/>
</g>
</svg>
